<svg xmlns="http://www.w3.org/2000/svg" viewBox="0 0 1440 900" width="1440" height="900" font-family="Manrope, sans-serif">
  <rect width="1440" height="900" fill="#0B0B0D"/>

  <!-- Sidebar -->
  <rect x="0" y="0" width="240" height="900" fill="#0E0E11"/>
  <line x1="240" y1="0" x2="240" y2="900" stroke="#2A2A31"/>
  <g transform="translate(24, 28)">
    <path d="M12 8 L28 8 L32 14 L32 26 L28 32 L20 34 L12 32 L8 26 L8 16 Z" fill="none" stroke="#E8B84A" stroke-width="2"/>
    <circle cx="14" cy="18" r="1.5" fill="#E8B84A"/><circle cx="26" cy="18" r="1.5" fill="#E8B84A"/>
    <text x="48" y="26" font-family="Bebas Neue, sans-serif" font-size="20" letter-spacing="2" fill="#F5EFE0">G<tspan fill="#E8B84A">D</tspan> ·BOX</text>
  </g>
  <line x1="24" y1="80" x2="216" y2="80" stroke="#2A2A31"/>
  <text x="24" y="112" font-family="JetBrains Mono, monospace" font-size="9" letter-spacing="2.5" fill="#82828A">— OPERACIÓN</text>
  <text x="42" y="154" font-family="Manrope, sans-serif" font-size="13" fill="#B8B8BE">Panel</text>
  <text x="42" y="194" font-family="Manrope, sans-serif" font-size="13" fill="#B8B8BE">Clientes</text>
  <text x="42" y="234" font-family="Manrope, sans-serif" font-size="13" fill="#B8B8BE">Membresías</text>
  <text x="42" y="276" font-family="Manrope, sans-serif" font-size="13" fill="#B8B8BE">Pagos</text>
  <rect x="0" y="288" width="240" height="42" fill="#151510" opacity="0.6"/>
  <line x1="0" y1="288" x2="0" y2="330" stroke="#E8B84A" stroke-width="2"/>
  <text x="42" y="314" font-family="Manrope, sans-serif" font-size="13" fill="#F5EFE0" font-weight="600">Reportes</text>
  <text x="24" y="360" font-family="JetBrains Mono, monospace" font-size="9" letter-spacing="2.5" fill="#82828A">— CONFIGURACIÓN</text>
  <text x="42" y="392" font-family="Manrope, sans-serif" font-size="13" fill="#B8B8BE">Sucursales</text>
  <text x="42" y="432" font-family="Manrope, sans-serif" font-size="13" fill="#B8B8BE">Contenido IA</text>
  <line x1="24" y1="820" x2="216" y2="820" stroke="#2A2A31"/>
  <rect x="24" y="840" width="36" height="36" fill="#232329" stroke="#A6822D"/>
  <text x="42" y="864" font-family="Bebas Neue, sans-serif" font-size="14" fill="#E8B84A" text-anchor="middle">JC</text>
  <text x="72" y="858" font-family="Manrope, sans-serif" font-size="12" fill="#F5EFE0" font-weight="600">Joseph Chachalo</text>
  <text x="72" y="874" font-family="JetBrains Mono, monospace" font-size="9" letter-spacing="1.5" fill="#82828A">ADMIN GENERAL</text>

  <!-- Topbar -->
  <text x="280" y="54" font-family="JetBrains Mono, monospace" font-size="10" letter-spacing="2.5" fill="#82828A">PERÍODO · 01 AGO – 07 SEPT 2026</text>
  <text x="280" y="88" font-family="Bebas Neue, sans-serif" font-size="32" letter-spacing="2" fill="#F5EFE0">REPORTES DE INGRESOS</text>

  <!-- Filters -->
  <rect x="770" y="62" width="220" height="34" fill="#141418" stroke="#2A2A31"/>
  <text x="786" y="84" font-family="JetBrains Mono, monospace" font-size="11" fill="#82828A">01 AGO – 07 SEP 2026</text>

  <rect x="1000" y="62" width="180" height="34" fill="#141418" stroke="#2A2A31"/>
  <text x="1024" y="83" font-family="JetBrains Mono, monospace" font-size="10" fill="#82828A" text-anchor="middle">TODAS</text>
  <rect x="1064" y="66" width="52" height="26" fill="#E8B84A"/>
  <text x="1090" y="83" font-family="JetBrains Mono, monospace" font-size="10" fill="#1A1206" text-anchor="middle" font-weight="700">NORTE</text>
  <text x="1150" y="83" font-family="JetBrains Mono, monospace" font-size="10" fill="#82828A" text-anchor="middle">SUR</text>

  <rect x="1220" y="62" width="180" height="34" fill="#E8B84A"/>
  <text x="1310" y="84" font-family="Bebas Neue, sans-serif" font-size="16" letter-spacing="2" fill="#1A1206" text-anchor="middle" font-weight="700">↓ EXPORTAR PDF</text>
  <line x1="280" y1="112" x2="1400" y2="112" stroke="#2A2A31"/>

  <!-- LEFT: Report -->
  <!-- KPIs -->
  <g transform="translate(280, 140)">
    <rect x="0" y="0" width="200" height="128" fill="#1B1B21" stroke="#2A2A31"/>
    <line x1="0" y1="0" x2="0" y2="128" stroke="#E8B84A" stroke-width="3"/>
    <text x="20" y="26" font-family="JetBrains Mono, monospace" font-size="10" letter-spacing="2" fill="#82828A">INGRESO TOTAL</text>
    <text x="20" y="88" font-family="Bebas Neue, sans-serif" font-size="52" letter-spacing="1" fill="#E8B84A">$6,840</text>
    <text x="20" y="112" font-family="JetBrains Mono, monospace" font-size="10" letter-spacing="1" fill="#82828A"><tspan fill="#F5EFE0" font-weight="600">228</tspan> COBROS</text>
    <text x="180" y="112" font-family="JetBrains Mono, monospace" font-size="10" letter-spacing="1" fill="#82828A" text-anchor="end">USD</text>

    <rect x="210" y="0" width="200" height="128" fill="#1B1B21" stroke="#2A2A31"/>
    <text x="230" y="26" font-family="JetBrains Mono, monospace" font-size="10" letter-spacing="2" fill="#82828A">NUEVOS SOCIOS</text>
    <text x="230" y="88" font-family="Bebas Neue, sans-serif" font-size="52" letter-spacing="1" fill="#F5EFE0">42</text>
    <text x="230" y="112" font-family="JetBrains Mono, monospace" font-size="10" letter-spacing="1" fill="#82828A">PROM. DÍA: <tspan fill="#F5EFE0">1.1</tspan></text>

    <rect x="420" y="0" width="200" height="128" fill="#1B1B21" stroke="#2A2A31"/>
    <text x="440" y="26" font-family="JetBrains Mono, monospace" font-size="10" letter-spacing="2" fill="#82828A">RENOVACIONES</text>
    <text x="440" y="88" font-family="Bebas Neue, sans-serif" font-size="52" letter-spacing="1" fill="#F5EFE0">186</text>
    <text x="440" y="112" font-family="JetBrains Mono, monospace" font-size="10" letter-spacing="1" fill="#82828A">TASA: <tspan fill="#F5EFE0">91%</tspan></text>

    <rect x="630" y="0" width="200" height="128" fill="#1B1B21" stroke="#2A2A31"/>
    <text x="650" y="26" font-family="JetBrains Mono, monospace" font-size="10" letter-spacing="2" fill="#82828A">TICKET PROMEDIO</text>
    <text x="650" y="88" font-family="Bebas Neue, sans-serif" font-size="52" letter-spacing="1" fill="#F5EFE0">$30</text>
    <text x="650" y="112" font-family="JetBrains Mono, monospace" font-size="10" letter-spacing="1" fill="#82828A">USD</text>
  </g>

  <!-- Chart -->
  <rect x="280" y="292" width="830" height="548" fill="#1B1B21" stroke="#2A2A31"/>
  <text x="304" y="332" font-family="Bebas Neue, sans-serif" font-size="20" letter-spacing="2" fill="#F5EFE0">INGRESO DIARIO · SEDE NORTE</text>
  <text x="304" y="352" font-family="JetBrains Mono, monospace" font-size="10" letter-spacing="2" fill="#82828A">BARRAS · 38 DÍAS</text>
  <text x="1086" y="336" font-family="Bebas Neue, sans-serif" font-size="32" letter-spacing="1" fill="#E8B84A" text-anchor="end">$4,320</text>
  <line x1="304" y1="372" x2="1086" y2="372" stroke="#2A2A31"/>

  <!-- Chart area -->
  <g transform="translate(340, 420)" stroke="#232329">
    <line x1="0" y1="0" x2="740" y2="0"/>
    <line x1="0" y1="80" x2="740" y2="80"/>
    <line x1="0" y1="160" x2="740" y2="160"/>
    <line x1="0" y1="240" x2="740" y2="240"/>
  </g>
  <g font-family="JetBrains Mono, monospace" font-size="10" fill="#82828A">
    <text x="308" y="424">$180</text>
    <text x="308" y="504">$120</text>
    <text x="316" y="584">$60</text>
  </g>

  <!-- Bars -->
  <g fill="#E8B84A" transform="translate(346, 420)">
    <rect x="0" y="140" width="16" height="120"/>
    <rect x="22" y="110" width="16" height="150"/>
    <rect x="44" y="80" width="16" height="180"/>
    <rect x="66" y="100" width="16" height="160"/>
    <rect x="88" y="60" width="16" height="200"/>
    <rect x="110" y="50" width="16" height="210"/>
    <rect x="132" y="100" width="16" height="160"/>
    <rect x="154" y="130" width="16" height="130"/>
    <rect x="176" y="80" width="16" height="180"/>
    <rect x="198" y="50" width="16" height="210"/>
    <rect x="220" y="40" width="16" height="220"/>
    <rect x="242" y="80" width="16" height="180"/>
    <rect x="264" y="100" width="16" height="160"/>
    <rect x="286" y="140" width="16" height="120"/>
    <rect x="308" y="80" width="16" height="180"/>
    <rect x="330" y="50" width="16" height="210"/>
    <rect x="352" y="20" width="16" height="240"/>
    <rect x="374" y="80" width="16" height="180"/>
    <rect x="396" y="100" width="16" height="160"/>
    <rect x="418" y="50" width="16" height="210"/>
    <rect x="440" y="80" width="16" height="180"/>
    <rect x="462" y="40" width="16" height="220"/>
    <rect x="484" y="10" width="16" height="250"/>
    <rect x="506" y="50" width="16" height="210"/>
    <rect x="528" y="80" width="16" height="180"/>
    <rect x="550" y="100" width="16" height="160"/>
    <rect x="572" y="80" width="16" height="180"/>
    <rect x="594" y="50" width="16" height="210"/>
    <rect x="616" y="20" width="16" height="240"/>
    <rect x="638" y="80" width="16" height="180"/>
    <rect x="660" y="100" width="16" height="160"/>
  </g>
  <g font-family="JetBrains Mono, monospace" font-size="9" fill="#82828A" transform="translate(346, 700)" letter-spacing="1">
    <text x="0" y="0">01</text>
    <text x="110" y="0">08</text>
    <text x="220" y="0">15</text>
    <text x="330" y="0">22</text>
    <text x="440" y="0">29</text>
    <text x="550" y="0">05</text>
    <text x="660" y="0">07</text>
  </g>

  <!-- RIGHT: PDF Preview -->
  <text x="1140" y="164" font-family="JetBrains Mono, monospace" font-size="10" letter-spacing="2.5" fill="#E8B84A">— VISTA PREVIA DEL PDF</text>

  <rect x="1140" y="180" width="260" height="640" fill="#F5EFE0"/>

  <!-- PDF content -->
  <g transform="translate(1160, 208)" font-family="Bebas Neue, sans-serif">
    <text x="0" y="20" font-size="20" letter-spacing="2" fill="#111">GUANTE DORADO</text>
    <text x="0" y="34" font-family="JetBrains Mono, monospace" font-size="7" letter-spacing="2" fill="#666" letter-spacing="1.5">CLUB DE BOXEO · REP. FINANCIERO</text>
    <g transform="translate(200, 4)"><path d="M8 4 L20 4 L23 8 L23 18 L20 22 L14 24 L8 22 L5 18 L5 10 Z" fill="none" stroke="#111" stroke-width="1.5"/><circle cx="10" cy="12" r="1" fill="#111"/><circle cx="18" cy="12" r="1" fill="#111"/></g>
    <line x1="0" y1="50" x2="220" y2="50" stroke="#111" stroke-width="1.5"/>

    <text x="0" y="80" font-size="15" letter-spacing="1.5" fill="#111">REPORTE DE INGRESOS · SEDE NORTE</text>
    <text x="0" y="94" font-family="JetBrains Mono, monospace" font-size="8" fill="#444" letter-spacing="1">PERÍODO: 01 AGO 2026 · 07 SEP 2026</text>

    <rect x="0" y="106" width="220" height="80" fill="none" stroke="#111"/>
    <text x="10" y="126" font-family="JetBrains Mono, monospace" font-size="7" fill="#666" letter-spacing="1">TOTAL RECAUDADO</text>
    <text x="10" y="156" font-size="30" letter-spacing="1" fill="#111">$4,320.00</text>
    <text x="120" y="126" font-family="JetBrains Mono, monospace" font-size="7" fill="#666" letter-spacing="1">Nº TRANSACCIONES</text>
    <text x="120" y="156" font-size="30" letter-spacing="1" fill="#111">144</text>

    <text x="0" y="212" font-size="12" letter-spacing="1.5" fill="#111">DESGLOSE POR PLAN</text>
    <line x1="0" y1="218" x2="220" y2="218" stroke="#111"/>

    <g font-family="JetBrains Mono, monospace" font-size="9" fill="#111">
      <text x="0" y="238">MENSUAL × 98</text><text x="160" y="238" text-anchor="end">$30</text><text x="220" y="238" text-anchor="end">$2,940</text>
      <line x1="0" y1="248" x2="220" y2="248" stroke="#CCC"/>
      <text x="0" y="266">TRIMESTRAL × 15</text><text x="160" y="266" text-anchor="end">$80</text><text x="220" y="266" text-anchor="end">$1,200</text>
      <line x1="0" y1="276" x2="220" y2="276" stroke="#CCC"/>
      <text x="0" y="294">CLASES × 36</text><text x="160" y="294" text-anchor="end">$5</text><text x="220" y="294" text-anchor="end">$180</text>
      <line x1="0" y1="304" x2="220" y2="304" stroke="#111" stroke-width="1.5"/>
      <text x="0" y="324" font-weight="700">TOTAL</text><text x="220" y="324" text-anchor="end" font-weight="700">$4,320</text>
    </g>

    <line x1="0" y1="580" x2="220" y2="580" stroke="#CCC"/>
    <text x="0" y="596" font-family="JetBrains Mono, monospace" font-size="6" fill="#666" letter-spacing="1">PÁG. 1 DE 3</text>
    <text x="220" y="596" font-family="JetBrains Mono, monospace" font-size="6" fill="#666" letter-spacing="1" text-anchor="end">BOXCONTROL · 07 SEP 2026 · 10:24</text>
  </g>
</svg>
