<svg xmlns="http://www.w3.org/2000/svg" viewBox="0 0 375 812" width="375" height="812" font-family="Manrope, sans-serif">
  <rect width="375" height="812" fill="#0B0B0D"/>

  <!-- Status bar -->
  <text x="32" y="30" font-family="JetBrains Mono, monospace" font-size="12" fill="#F5EFE0" font-weight="600">9:41</text>
  <g transform="translate(310, 22)" fill="#F5EFE0">
    <rect x="0" y="6" width="2" height="4"/>
    <rect x="4" y="4" width="2" height="6"/>
    <rect x="8" y="2" width="2" height="8"/>
    <rect x="12" y="0" width="2" height="10"/>
    <rect x="20" y="2" width="14" height="6" fill="none" stroke="#F5EFE0"/>
    <rect x="22" y="4" width="8" height="2"/>
  </g>

  <!-- Header -->
  <text x="24" y="76" font-family="JetBrains Mono, monospace" font-size="10" letter-spacing="2" fill="#82828A">— HOLA</text>
  <text x="24" y="98" font-family="Bebas Neue, sans-serif" font-size="22" letter-spacing="1.5" fill="#F5EFE0">MARCO RIVERA</text>
  <circle cx="330" cy="86" r="22" fill="#232329" stroke="#E8B84A" stroke-width="1.5"/>
  <text x="330" y="93" font-family="Bebas Neue, sans-serif" font-size="16" fill="#E8B84A" text-anchor="middle" letter-spacing="1">MR</text>

  <!-- Membership card -->
  <rect x="20" y="140" width="335" height="380" fill="#151519" stroke="#A6822D"/>
  <rect x="32" y="152" width="311" height="356" fill="none" stroke="#A6822D" stroke-opacity="0.3" stroke-width="0.5"/>

  <!-- Card top -->
  <text x="40" y="180" font-family="Bebas Neue, sans-serif" font-size="14" letter-spacing="3" fill="#F5EFE0">GUANTE <tspan fill="#E8B84A">DORADO</tspan></text>
  <text x="40" y="196" font-family="JetBrains Mono, monospace" font-size="8" letter-spacing="2" fill="#82828A">CARNET DE SOCIO · SEDE NORTE</text>

  <!-- Active pill -->
  <rect x="252" y="168" width="86" height="20" fill="#0F1F14" stroke="#4ADE80" stroke-opacity="0.4"/>
  <circle cx="262" cy="178" r="3" fill="#4ADE80"/>
  <text x="270" y="182" font-family="JetBrains Mono, monospace" font-size="9" letter-spacing="2" fill="#4ADE80">ACTIVA</text>

  <!-- QR container -->
  <rect x="88" y="220" width="200" height="200" fill="#F5EFE0"/>

  <!-- QR pattern -->
  <g transform="translate(96, 228)" fill="#0B0B0D">
    <!-- position markers -->
    <rect x="4" y="4" width="30" height="30"/>
    <rect x="10" y="10" width="18" height="18" fill="#F5EFE0"/>
    <rect x="15" y="15" width="8" height="8"/>
    <rect x="146" y="4" width="30" height="30"/>
    <rect x="152" y="10" width="18" height="18" fill="#F5EFE0"/>
    <rect x="157" y="15" width="8" height="8"/>
    <rect x="4" y="146" width="30" height="30"/>
    <rect x="10" y="152" width="18" height="18" fill="#F5EFE0"/>
    <rect x="15" y="157" width="8" height="8"/>
    <!-- data noise -->
    <rect x="42" y="4" width="6" height="6"/><rect x="56" y="4" width="6" height="6"/><rect x="70" y="4" width="6" height="6"/><rect x="98" y="4" width="6" height="6"/><rect x="112" y="4" width="6" height="6"/><rect x="126" y="4" width="6" height="6"/>
    <rect x="42" y="18" width="6" height="6"/><rect x="70" y="18" width="6" height="6"/><rect x="84" y="18" width="6" height="6"/><rect x="98" y="18" width="6" height="6"/><rect x="126" y="18" width="6" height="6"/>
    <rect x="42" y="42" width="6" height="6"/><rect x="56" y="42" width="6" height="6"/><rect x="84" y="42" width="6" height="6"/><rect x="112" y="42" width="6" height="6"/><rect x="140" y="42" width="6" height="6"/><rect x="168" y="42" width="6" height="6"/>
    <rect x="4" y="56" width="6" height="6"/><rect x="42" y="56" width="6" height="6"/><rect x="70" y="56" width="6" height="6"/><rect x="98" y="56" width="6" height="6"/><rect x="126" y="56" width="6" height="6"/><rect x="154" y="56" width="6" height="6"/>
    <rect x="14" y="70" width="6" height="6"/><rect x="42" y="70" width="6" height="6"/><rect x="56" y="70" width="6" height="6"/><rect x="84" y="70" width="6" height="6"/><rect x="112" y="70" width="6" height="6"/><rect x="140" y="70" width="6" height="6"/><rect x="168" y="70" width="6" height="6"/>
    <rect x="4" y="84" width="6" height="6"/><rect x="28" y="84" width="6" height="6"/><rect x="56" y="84" width="6" height="6"/><rect x="70" y="84" width="6" height="6"/><rect x="98" y="84" width="6" height="6"/><rect x="126" y="84" width="6" height="6"/><rect x="154" y="84" width="6" height="6"/>
    <rect x="14" y="98" width="6" height="6"/><rect x="42" y="98" width="6" height="6"/><rect x="84" y="98" width="6" height="6"/><rect x="112" y="98" width="6" height="6"/><rect x="140" y="98" width="6" height="6"/><rect x="168" y="98" width="6" height="6"/>
    <rect x="4" y="112" width="6" height="6"/><rect x="28" y="112" width="6" height="6"/><rect x="56" y="112" width="6" height="6"/><rect x="70" y="112" width="6" height="6"/><rect x="98" y="112" width="6" height="6"/><rect x="140" y="112" width="6" height="6"/><rect x="154" y="112" width="6" height="6"/>
    <rect x="14" y="126" width="6" height="6"/><rect x="42" y="126" width="6" height="6"/><rect x="70" y="126" width="6" height="6"/><rect x="112" y="126" width="6" height="6"/><rect x="126" y="126" width="6" height="6"/><rect x="154" y="126" width="6" height="6"/><rect x="168" y="126" width="6" height="6"/>
    <rect x="42" y="140" width="6" height="6"/><rect x="56" y="140" width="6" height="6"/><rect x="98" y="140" width="6" height="6"/><rect x="126" y="140" width="6" height="6"/><rect x="140" y="140" width="6" height="6"/>
    <rect x="42" y="154" width="6" height="6"/><rect x="70" y="154" width="6" height="6"/><rect x="98" y="154" width="6" height="6"/><rect x="112" y="154" width="6" height="6"/><rect x="126" y="154" width="6" height="6"/><rect x="140" y="154" width="6" height="6"/><rect x="154" y="154" width="6" height="6"/><rect x="168" y="154" width="6" height="6"/>
  </g>

  <!-- Card info -->
  <text x="40" y="450" font-family="JetBrains Mono, monospace" font-size="8" letter-spacing="2" fill="#82828A">Nº SOCIO</text>
  <text x="40" y="470" font-family="JetBrains Mono, monospace" font-size="13" letter-spacing="1" fill="#E8B84A" font-weight="500">GD-1042</text>

  <text x="200" y="450" font-family="JetBrains Mono, monospace" font-size="8" letter-spacing="2" fill="#82828A">PLAN</text>
  <text x="200" y="470" font-family="JetBrains Mono, monospace" font-size="13" letter-spacing="1" fill="#F5EFE0" font-weight="500">MENSUAL</text>

  <text x="40" y="490" font-family="JetBrains Mono, monospace" font-size="8" letter-spacing="2" fill="#82828A">VENCE</text>
  <text x="40" y="512" font-family="Bebas Neue, sans-serif" font-size="20" letter-spacing="2" fill="#F5EFE0">08·10·26</text>

  <text x="200" y="490" font-family="JetBrains Mono, monospace" font-size="8" letter-spacing="2" fill="#82828A">DÍAS RESTANTES</text>
  <text x="200" y="512" font-family="Bebas Neue, sans-serif" font-size="20" letter-spacing="2" fill="#E8B84A">31</text>

  <!-- Quick stats tiles -->
  <rect x="20" y="546" width="160" height="88" fill="#1B1B21" stroke="#2A2A31"/>
  <text x="34" y="568" font-family="JetBrains Mono, monospace" font-size="8" letter-spacing="2" fill="#82828A">ASISTENCIAS · MES</text>
  <text x="34" y="600" font-family="Bebas Neue, sans-serif" font-size="26" letter-spacing="1" fill="#F5EFE0">14<tspan font-size="11" fill="#82828A" letter-spacing="1"> / 20</tspan></text>
  <text x="34" y="622" font-family="JetBrains Mono, monospace" font-size="9" letter-spacing="1" fill="#82828A">70% DE META MENSUAL</text>

  <rect x="195" y="546" width="160" height="88" fill="#1B1B21" stroke="#2A2A31"/>
  <text x="209" y="568" font-family="JetBrains Mono, monospace" font-size="8" letter-spacing="2" fill="#82828A">ÚLTIMO INGRESO</text>
  <text x="209" y="600" font-family="Bebas Neue, sans-serif" font-size="26" letter-spacing="1" fill="#F5EFE0">AYER</text>
  <text x="209" y="622" font-family="JetBrains Mono, monospace" font-size="9" letter-spacing="1" fill="#82828A">18:42 · SEDE NORTE</text>

  <!-- Tab bar -->
  <rect x="0" y="720" width="375" height="92" fill="#0A0A0C"/>
  <line x1="0" y1="720" x2="375" y2="720" stroke="#2A2A31"/>

  <!-- Active: Carnet -->
  <rect x="6" y="738" width="20" height="20" fill="none" stroke="#E8B84A" stroke-width="1.7"/>
  <rect x="60" y="738" width="20" height="20" fill="none" stroke="#E8B84A" stroke-width="1.7" opacity="0"/>
  <g stroke="#E8B84A" stroke-width="1.7" fill="none">
    <rect x="42" y="738" width="8" height="8"/><rect x="54" y="738" width="8" height="8"/>
    <rect x="42" y="750" width="8" height="8"/><rect x="54" y="750" width="8" height="8"/>
  </g>
  <text x="52" y="782" font-family="JetBrains Mono, monospace" font-size="9" letter-spacing="1.5" fill="#E8B84A" text-anchor="middle">CARNET</text>

  <g stroke="#82828A" stroke-width="1.7" fill="none">
    <path d="M132 758 L132 748 L142 741 L152 748 L152 758 M139 758 L139 752 L145 752 L145 758"/>
  </g>
  <text x="142" y="782" font-family="JetBrains Mono, monospace" font-size="9" letter-spacing="1.5" fill="#82828A" text-anchor="middle">RUTINAS</text>

  <circle cx="234" cy="748" r="8" fill="none" stroke="#82828A" stroke-width="1.7"/>
  <path d="M234 744 L234 748 L237 750" stroke="#82828A" stroke-width="1.7" fill="none"/>
  <text x="234" y="782" font-family="JetBrains Mono, monospace" font-size="9" letter-spacing="1.5" fill="#82828A" text-anchor="middle">HISTORIAL</text>

  <circle cx="326" cy="745" r="3" fill="none" stroke="#82828A" stroke-width="1.7"/>
  <path d="M320 758 a6 6 0 0 1 12 0" fill="none" stroke="#82828A" stroke-width="1.7"/>
  <text x="326" y="782" font-family="JetBrains Mono, monospace" font-size="9" letter-spacing="1.5" fill="#82828A" text-anchor="middle">PERFIL</text>
</svg>
